<!-- Generated by IcoMoon.io -->
<svg version="1.1" xmlns="http://www.w3.org/2000/svg" width="32" height="32" viewBox="0 0 32 32">
<path fill="#fff" d="M9.385 26.667c-0.189 0-0.347-0.064-0.475-0.192s-0.192-0.286-0.192-0.475v-2.528c-0.434-0.188-0.885-0.589-1.351-1.201s-0.7-1.318-0.7-2.117v-12.154c0-1.383 0.749-2.396 2.246-3.037s3.859-0.963 7.087-0.963c3.344 0 5.736 0.308 7.175 0.925s2.159 1.642 2.159 3.075v12.154c0 0.798-0.233 1.504-0.7 2.117s-0.917 1.013-1.351 1.201v2.528c0 0.189-0.064 0.347-0.192 0.475s-0.286 0.192-0.475 0.192h-0.308c-0.189 0-0.347-0.064-0.475-0.192s-0.192-0.286-0.192-0.475v-2h-11.282v2c0 0.189-0.064 0.347-0.192 0.475s-0.286 0.192-0.475 0.192h-0.308zM8 14.667h16v-5.949h-16v5.949zM11.339 20.821c0.415 0 0.765-0.145 1.052-0.436s0.429-0.643 0.429-1.058-0.145-0.765-0.435-1.052c-0.29-0.286-0.643-0.429-1.058-0.429s-0.765 0.145-1.052 0.436c-0.286 0.29-0.429 0.643-0.429 1.058s0.145 0.765 0.435 1.052c0.29 0.286 0.643 0.429 1.058 0.429zM20.673 20.821c0.415 0 0.765-0.145 1.052-0.436s0.429-0.643 0.429-1.058-0.145-0.765-0.436-1.052c-0.29-0.286-0.643-0.429-1.058-0.429s-0.765 0.145-1.052 0.436c-0.286 0.29-0.429 0.643-0.429 1.058s0.145 0.765 0.436 1.052c0.29 0.286 0.643 0.429 1.058 0.429zM8.138 7.385h15.754c-0.231-0.685-0.943-1.199-2.137-1.54s-3.107-0.512-5.74-0.512c-2.617 0-4.523 0.173-5.717 0.519s-1.914 0.857-2.16 1.532zM10.667 22.667h10.667c0.733 0 1.361-0.261 1.883-0.783s0.783-1.15 0.783-1.883v-4h-16v4c0 0.733 0.261 1.361 0.783 1.883s1.15 0.783 1.883 0.783z"></path>
</svg>
