<!-- Generated by IcoMoon.io -->
<svg version="1.1" xmlns="http://www.w3.org/2000/svg" width="32" height="32" viewBox="0 0 32 32">
<path fill="#fff" d="M16 0.4c-3.085 0-6.101 0.915-8.667 2.629s-4.565 4.151-5.746 7.001c-1.181 2.851-1.49 5.987-0.888 9.013s2.088 5.806 4.269 7.988c2.182 2.182 4.961 3.668 7.987 4.269s6.163 0.293 9.013-0.888c2.85-1.181 5.287-3.18 7.001-5.746s2.629-5.581 2.629-8.667c-0.004-4.136-1.649-8.101-4.574-11.026s-6.89-4.57-11.026-4.574zM17.2 29.144v-9.544h3.6c0.318 0 0.624-0.126 0.848-0.352s0.352-0.53 0.352-0.848-0.126-0.624-0.352-0.848c-0.225-0.225-0.53-0.352-0.848-0.352h-3.6v-3.6c0-0.636 0.253-1.247 0.703-1.697s1.061-0.703 1.697-0.703h2.4c0.318 0 0.624-0.126 0.848-0.351s0.352-0.53 0.352-0.849-0.126-0.623-0.352-0.849c-0.225-0.225-0.53-0.351-0.848-0.351h-2.4c-1.273 0-2.494 0.506-3.394 1.406s-1.406 2.121-1.406 3.394v3.6h-3.6c-0.318 0-0.623 0.126-0.849 0.352s-0.351 0.53-0.351 0.848 0.126 0.624 0.351 0.848c0.225 0.225 0.53 0.352 0.849 0.352h3.6v9.544c-3.383-0.309-6.516-1.91-8.749-4.47s-3.392-5.883-3.237-9.276c0.155-3.393 1.611-6.596 4.067-8.943s5.722-3.656 9.119-3.656c3.397 0 6.663 1.31 9.119 3.656s3.913 5.55 4.067 8.943c0.155 3.393-1.005 6.716-3.238 9.276s-5.366 4.161-8.749 4.47z"></path>
</svg>
