<!-- Generated by IcoMoon.io -->
<svg version="1.1" xmlns="http://www.w3.org/2000/svg" width="32" height="32" viewBox="0 0 32 32">
<path fill="#fff" d="M12 21.667c-0.467 0-0.861-0.161-1.183-0.483s-0.483-0.717-0.483-1.183c0-0.467 0.161-0.861 0.483-1.183s0.717-0.483 1.183-0.483c0.467 0 0.861 0.161 1.183 0.483s0.483 0.717 0.483 1.183c0 0.467-0.161 0.861-0.483 1.183s-0.717 0.483-1.183 0.483zM20 21.667c-0.467 0-0.861-0.161-1.183-0.483s-0.483-0.717-0.483-1.183 0.161-0.861 0.483-1.183c0.322-0.322 0.717-0.483 1.183-0.483s0.861 0.161 1.183 0.483c0.322 0.322 0.483 0.717 0.483 1.183s-0.161 0.861-0.483 1.183c-0.322 0.322-0.717 0.483-1.183 0.483zM16 29.333c2.978 0 5.5-1.033 7.567-3.1s3.1-4.589 3.1-7.567c0-0.533-0.033-1.050-0.1-1.55s-0.189-0.983-0.367-1.45c-0.467 0.111-0.933 0.194-1.4 0.25s-0.955 0.083-1.467 0.083c-2.022 0-3.933-0.433-5.733-1.3s-3.333-2.078-4.6-3.633c-0.711 1.733-1.728 3.239-3.050 4.517s-2.861 2.239-4.617 2.883v0.2c0 2.978 1.033 5.5 3.1 7.567s4.589 3.1 7.567 3.1zM12.944 8.423c1.087 2.171 2.623 3.754 4.608 4.75s3.912 1.494 5.782 1.494c0.414 0 0.821-0.021 1.221-0.063s0.798-0.111 1.195-0.206c-0.848-1.983-2.161-3.545-3.941-4.686s-3.715-1.712-5.808-1.712c-0.585 0-1.12 0.034-1.605 0.101s-0.969 0.175-1.451 0.322zM5.516 16.941c1.373-0.61 2.763-1.61 4.172-3s2.23-3.137 2.464-5.241c-1.783 0.679-3.259 1.747-4.428 3.205s-1.905 3.137-2.208 5.036zM4.567 15.279c0.485-1.776 1.337-3.341 2.555-4.696s2.689-2.36 4.414-3.017c-0.48-0.603-1.076-1.092-1.787-1.467s-1.496-0.562-2.355-0.562c-1.481 0-2.733 0.512-3.756 1.537s-1.535 2.279-1.535 3.763c0 0.934 0.226 1.788 0.677 2.561s1.047 1.4 1.787 1.88zM16.005 30.667c-1.659 0-3.22-0.315-4.68-0.945s-2.732-1.485-3.812-2.565c-1.081-1.080-1.936-2.35-2.566-3.81s-0.946-3.020-0.946-4.68c0-0.35 0.015-0.698 0.044-1.042s0.081-0.677 0.156-0.999c-1.041-0.561-1.873-1.354-2.496-2.38s-0.935-2.162-0.935-3.407c0-1.844 0.644-3.411 1.933-4.7s2.856-1.933 4.7-1.933c1.127 0 2.163 0.262 3.109 0.786s1.719 1.226 2.319 2.106c0.509-0.144 1.030-0.251 1.561-0.323s1.067-0.108 1.608-0.108c1.66 0 3.22 0.315 4.68 0.945s2.73 1.484 3.81 2.564c1.080 1.080 1.935 2.349 2.565 3.809s0.945 3.019 0.945 4.678c0 1.659-0.315 3.219-0.945 4.68s-1.484 2.732-2.564 3.812c-1.080 1.081-2.349 1.936-3.809 2.567s-3.019 0.945-4.678 0.945z"></path>
</svg>
