<!-- Generated by IcoMoon.io -->
<svg version="1.1" xmlns="http://www.w3.org/2000/svg" width="32" height="32" viewBox="0 0 32 32">
<path fill="#fff" d="M16 8.8c-1.424 0-2.816 0.422-4 1.213s-2.107 1.916-2.652 3.231c-0.545 1.316-0.688 2.763-0.41 4.16s0.964 2.68 1.97 3.687c1.007 1.007 2.29 1.693 3.687 1.97s2.844 0.135 4.16-0.41c1.316-0.545 2.44-1.468 3.231-2.652s1.213-2.576 1.213-4c-0.002-1.909-0.761-3.739-2.111-5.089s-3.18-2.109-5.089-2.111zM16 20.8c-0.949 0-1.877-0.281-2.667-0.809s-1.405-1.277-1.768-2.154c-0.363-0.877-0.458-1.842-0.273-2.773s0.642-1.786 1.314-2.458c0.671-0.671 1.527-1.128 2.458-1.314s1.896-0.090 2.773 0.273c0.877 0.363 1.627 0.979 2.154 1.768s0.809 1.717 0.809 2.667c0 1.273-0.506 2.494-1.406 3.394s-2.121 1.406-3.394 1.406zM23.2 0.4h-14.4c-2.227 0.002-4.362 0.888-5.937 2.463s-2.461 3.71-2.463 5.937v14.4c0.002 2.227 0.888 4.362 2.463 5.937s3.71 2.46 5.937 2.463h14.4c2.227-0.002 4.362-0.888 5.937-2.463s2.46-3.71 2.463-5.937v-14.4c-0.002-2.227-0.888-4.362-2.463-5.937s-3.71-2.461-5.937-2.463zM29.2 23.2c0 1.591-0.632 3.117-1.757 4.243s-2.651 1.757-4.243 1.757h-14.4c-1.591 0-3.117-0.632-4.243-1.757s-1.757-2.651-1.757-4.243v-14.4c0-1.591 0.632-3.117 1.757-4.243s2.651-1.757 4.243-1.757h14.4c1.591 0 3.117 0.632 4.243 1.757s1.757 2.651 1.757 4.243v14.4zM25.6 8.2c0 0.356-0.106 0.704-0.303 1s-0.479 0.527-0.808 0.663c-0.329 0.136-0.691 0.172-1.040 0.102s-0.67-0.241-0.922-0.493-0.423-0.572-0.493-0.922c-0.069-0.349-0.034-0.711 0.102-1.040s0.367-0.61 0.663-0.808 0.644-0.303 1-0.303c0.477 0 0.935 0.19 1.273 0.527s0.527 0.795 0.527 1.273z"></path>
</svg>
