<!-- Generated by IcoMoon.io -->
<svg version="1.1" xmlns="http://www.w3.org/2000/svg" width="181" height="32" viewBox="0 0 181 32">
<path fill="#ae990b" d="M16 0l4.232 10.175 10.985 0.88-8.369 7.171 2.556 10.72-9.404-5.745-9.404 5.744 2.556-10.72-8.369-7.167 10.985-0.88 4.232-10.177zM53.333 0l4.232 10.175 10.985 0.88-8.369 7.171 2.556 10.72-9.404-5.745-9.404 5.744 2.556-10.72-8.369-7.168 10.985-0.88 4.232-10.176zM90.667 0l4.232 10.175 10.985 0.88-8.369 7.171 2.556 10.72-9.404-5.745-9.404 5.744 2.556-10.72-8.369-7.168 10.985-0.88 4.232-10.176zM128 0l4.232 10.175 10.985 0.88-8.369 7.171 2.556 10.72-9.404-5.745-9.404 5.744 2.556-10.72-8.369-7.168 10.985-0.88 4.232-10.176zM165.333 0l4.232 10.175 10.985 0.88-8.369 7.171 2.556 10.72-9.404-5.745-9.404 5.744 2.556-10.72-8.369-7.168 10.985-0.88 4.232-10.176z"></path>
</svg>
