<!-- Generated by IcoMoon.io -->
<svg version="1.1" xmlns="http://www.w3.org/2000/svg" width="32" height="32" viewBox="0 0 32 32">
<path fill="#fff" d="M30.847 2.844c-0.169-0.146-0.375-0.243-0.595-0.281s-0.446-0.015-0.654 0.067l-27.636 10.815c-0.392 0.152-0.723 0.428-0.945 0.785s-0.321 0.776-0.284 1.195c0.037 0.419 0.21 0.814 0.491 1.126s0.656 0.524 1.069 0.605l7.16 1.406v7.984c-0.001 0.435 0.128 0.86 0.371 1.221s0.589 0.64 0.993 0.802c0.403 0.165 0.846 0.204 1.272 0.113s0.815-0.308 1.116-0.622l3.453-3.581 5.478 4.795c0.395 0.351 0.905 0.544 1.433 0.545 0.231-0 0.462-0.037 0.682-0.108 0.36-0.114 0.684-0.321 0.939-0.599s0.433-0.618 0.516-0.987l5.535-24.079c0.049-0.217 0.039-0.444-0.031-0.655s-0.195-0.4-0.364-0.546zM22.51 7.753l-12.217 8.749-6.764-1.327 18.981-7.422zM11.636 26.545v-6.475l3.38 2.965-3.38 3.51zM23.572 27.636l-11.275-9.886 16.227-11.63-4.953 21.517z"></path>
</svg>
